PathFileType	4	(X/Y/Z)	OpenSim_Sub04_EMGBaseline_Gyro.trc
DataRate	CameraRate	NumFrames	NumMarkers	Units	OrigDataRate	OrigDataStartFrame	OrigNumFrames
100	100	40	8	m	100	6949	7941
Frame#	Time	torso_imu_offset_imu	pelvis_imu_offset_imu	tibia_r_imu_offset_imu	femur_r_imu_offset_imu	tibia_l_imu_offset_imu	femur_l_imu_offset_imu	toes_r_imu_offset_imu	toes_l_imu_offset_imu
				X1	Y1	Z1	X2	Y2	Z2	X3	Y3	Z3	X4	Y4	Z4	X5	Y5	Z5	X6	Y6	Z6	X7	Y7	Z7	X8		Y8	Z8	

6949	69.48000000	-0.11806693	0.00893712	0.14980939	-0.27163121	0.11858046	-0.05104186	-0.19141024	-0.07311665	-0.88225851	0.12098010	-0.14669413	-0.64977000	-0.71038956	1.24875386	-4.89396819	0.52923570	-0.16596206	0.47699564	-0.10321745	-0.41168189	-0.15424915	-1.13000099	3.10698054	-2.01519821
6950	69.49000000	-0.07980647	0.00186178	0.13129709	-0.31443293	0.12163347	-0.04493477	-0.18001324	-0.07610599	-0.88469364	0.13551524	-0.14100211	-0.64839700	-0.52320590	1.29417967	-4.71515161	0.58916161	-0.06150156	0.55807947	-0.08940720	-0.45908814	-0.17470772	-1.20761955	2.69660388	-1.97319206
6951	69.50000000	-0.04199176	-0.00437568	0.11598264	-0.34846520	0.10879039	-0.04365203	-0.17748587	-0.07626657	-0.89299512	0.11514091	-0.11956077	-0.63398336	-0.38914244	1.33453649	-4.51782908	0.59132661	0.07536625	0.64953376	-0.04378346	-0.48300010	-0.19289386	-0.95372230	2.46466882	-2.01974550
6952	69.51000000	-0.00883753	-0.03012317	0.09760117	-0.38619317	0.09138039	-0.04520223	-0.17785877	-0.06871536	-0.91499661	0.06390306	-0.09553305	-0.60413329	-0.24702134	1.22456176	-4.27694504	0.53297756	0.17477847	0.74250374	-0.05580035	-0.51618030	-0.18197540	-0.52457531	2.58667398	-2.14311887
6953	69.52000000	0.02462388	-0.05211353	0.07687960	-0.43773536	0.08173335	-0.04888217	-0.19251805	-0.05519406	-0.94254489	-0.00973939	-0.06066880	-0.58039535	-0.03218830	1.05632296	-3.95578471	0.45771266	0.14293413	0.80122430	-0.14735379	-0.58734113	-0.15549320	-0.15030766	2.96625075	-2.24032821
6954	69.53000000	0.05598593	-0.07201669	0.04455021	-0.48270338	0.07324953	-0.04160090	-0.17807755	-0.06320473	-0.96296380	-0.09275374	-0.02292178	-0.54206917	0.10500223	0.94675541	-3.54450368	0.35060572	0.01627822	0.79972537	-0.12913035	-0.66360185	-0.16396918	-0.07049958	3.20810246	-2.18908674
6955	69.54000000	0.08467729	-0.07974774	0.00236214	-0.50684547	0.06784429	-0.03696349	-0.16386523	-0.05668816	-1.00182706	-0.17436147	0.01544021	-0.50601451	-0.00351225	0.85598388	-3.11726900	0.13075712	-0.08648845	0.73477405	-0.16584205	-0.71563758	-0.18138056	-0.18469782	3.03971446	-2.01879773
6956	69.55000000	0.11561514	-0.08465538	-0.02764830	-0.51102327	0.05869589	-0.04136986	-0.17648054	-0.06119411	-1.05849783	-0.26091610	0.05713882	-0.47655640	-0.28418696	0.71859424	-2.78389441	-0.18774140	-0.11024289	0.62397084	-0.15326477	-0.79394670	-0.18011181	-0.24004673	2.64751724	-1.84589521
6957	69.56000000	0.13970686	-0.08887135	-0.05127163	-0.48958955	0.04785477	-0.04705426	-0.18727425	-0.06304911	-1.12267280	-0.34165340	0.09573270	-0.44548532	-0.45669744	0.55208973	-2.51211553	-0.53597788	-0.11397635	0.56583912	-0.17141157	-0.88675603	-0.16744289	-0.13646858	2.29279093	-1.71546646
6958	69.57000000	0.15462417	-0.09612126	-0.07372262	-0.46288341	0.03703254	-0.04867268	-0.25063100	-0.04462505	-1.17197100	-0.37625803	0.14739110	-0.41234415	-0.41378809	0.41859912	-2.20476711	-0.78727465	-0.17997792	0.55774683	-0.23240697	-0.98536200	-0.15182573	0.04231786	2.08461600	-1.59296029
6959	69.58000000	0.16871756	-0.10228228	-0.09193486	-0.43722513	0.01802589	-0.05231913	-0.31520135	0.02534501	-1.22066638	-0.36155708	0.19860965	-0.37211925	-0.22889969	0.28134672	-1.77753750	-0.88236123	-0.31877730	0.52685320	-0.18465028	-1.09785528	-0.16494521	0.24624600	1.92072790	-1.44718044
6960	69.59000000	0.18343592	-0.10936191	-0.11053461	-0.42449051	-0.00718239	-0.05483901	-0.23089805	-0.00201622	-1.25622346	-0.37527030	0.23326302	-0.36579906	-0.17152980	0.07076228	-1.25194882	-0.83402056	-0.47734782	0.41674930	-0.24130481	-1.20257641	-0.15910962	0.37422684	1.57362343	-1.22875453
6961	69.60000000	0.19200661	-0.12120054	-0.12798658	-0.38825300	-0.03420223	-0.05267077	-0.22716558	0.01498968	-1.30002578	-0.41994522	0.25240273	-0.35299238	-0.27309003	-0.09636973	-0.68200234	-0.66923442	-0.56701713	0.24559223	-0.24152326	-1.30539078	-0.15031595	0.32305832	1.04141105	-0.95265955
6962	69.61000000	0.18532049	-0.14231908	-0.14519961	-0.37281290	-0.04463432	-0.05233395	-0.21316063	0.02419869	-1.35477221	-0.39363636	0.27383519	-0.32582036	-0.49181682	-0.17382727	-0.10555220	-0.44586444	-0.59570132	0.05814273	-0.24559101	-1.39311345	-0.16549593	0.08097404	0.46174107	-0.67571546
6963	69.62000000	0.18397244	-0.17510248	-0.16338834	-0.35165954	-0.04716612	-0.05896790	-0.12809502	0.02462357	-1.38348375	-0.29183689	0.27681854	-0.30320088	-0.74454033	-0.24435868	0.42611378	-0.28366663	-0.55988603	-0.11655699	-0.24051761	-1.49135208	-0.16968784	-0.22556780	-0.06479283	-0.46432739
6964	69.63000000	0.18040310	-0.20665737	-0.18001399	-0.35968194	-0.04803888	-0.07523885	-0.08242737	0.06175876	-1.40487713	-0.15713816	0.28320993	-0.30273851	-0.98692570	-0.31574332	0.91072324	-0.25118841	-0.45171563	-0.25037494	-0.25697390	-1.58958986	-0.17739676	-0.35420882	-0.70549663	-0.24621861
6965	69.64000000	0.19157543	-0.25063148	-0.19461240	-0.38120953	-0.04929590	-0.08732408	-0.03966499	0.07805435	-1.43123269	-0.04733535	0.29937451	-0.33134222	-1.23605243	-0.43093807	1.32492370	-0.28809133	-0.33282287	-0.32642629	-0.22271683	-1.68720733	-0.19761142	-0.24826753	-1.68700285	0.17814724
6966	69.65000000	0.19734067	-0.29919394	-0.20412552	-0.38690948	-0.06039201	-0.09038606	0.00654778	0.09171437	-1.47027478	0.03076237	0.31289293	-0.35403016	-1.50758326	-0.61351162	1.65513763	-0.30075467	-0.28264741	-0.33488353	-0.20708850	-1.78873171	-0.20314039	-0.09732080	-1.98156883	0.10395385
6967	69.66000000	0.20707083	-0.33360194	-0.21026012	-0.36539583	-0.09036333	-0.08842633	0.04411393	0.10334679	-1.51289883	0.06678073	0.31179147	-0.35494140	-1.54332622	-0.81424843	1.86183156	-0.25782577	-0.28882932	-0.30134118	-0.21557534	-1.92501014	-0.21413066	0.20436965	-2.24065193	-0.25360974
6968	69.67000000	0.21459594	-0.35540174	-0.21081324	-0.32297253	-0.12025742	-0.08273083	0.02828878	0.11399317	-1.55159721	0.08936188	0.32387693	-0.34602197	-1.32821222	-0.92051358	1.86662364	-0.17097448	-0.32399644	-0.21650414	-0.17117379	-2.07372815	-0.25503760	-0.73830512	-1.89667068	-0.24161747
6969	69.68000000	0.22306765	-0.38600579	-0.20485272	-0.26937742	-0.13212678	-0.08110253	0.00190405	0.12434456	-1.58928497	0.10180490	0.34911185	-0.31408801	-0.92858452	-1.06180377	1.47889713	0.00364052	-0.41410333	-0.08963462	-0.13655005	-2.23398205	-0.29754694	-0.90202478	-2.09728214	-0.10231489
6970	69.69000000	0.22603463	-0.39434717	-0.19992862	-0.22275774	-0.10420113	-0.10293660	0.01829809	0.13735465	-1.64083641	0.07867146	0.38041265	-0.27087665	-0.57199752	-1.08310991	0.92560451	0.17395211	-0.56917639	0.03421446	-0.12396510	-2.42374006	-0.33644333	-0.43229080	-2.52423033	0.04811085
6971	69.70000000	0.22279412	-0.42340139	-0.19426861	-0.13043251	-0.07364767	-0.10322057	0.02215166	0.13239759	-1.68476299	0.02865262	0.40352602	-0.19903846	-0.69142210	-0.86914497	0.54388705	0.31527377	-0.80617340	0.16726510	-0.04744027	-2.61848829	-0.40733582	0.06047986	-2.56514252	0.32621477
6972	69.71000000	0.22304918	-0.45128370	-0.17985760	-0.04696216	-0.06512223	-0.07913878	0.00257106	0.13376793	-1.72591772	0.00284145	0.42031311	-0.12365920	-0.91426495	-0.68235470	0.54263638	0.37108084	-1.04253861	0.32193181	0.00298653	-2.87605982	-0.49930567	0.37949516	-2.19190488	0.66516597
6973	69.72000000	0.21487947	-0.46515980	-0.17340314	0.02721158	-0.09357416	-0.05837151	0.03222697	0.15339877	-1.77150319	0.02707274	0.41445706	-0.07264446	-1.21325286	-0.60501031	0.79388844	0.38136583	-1.15427777	0.48273899	0.12807956	-3.10671625	-0.62257333	0.44403280	-2.00857527	0.87834035
6974	69.73000000	0.21135669	-0.45364947	-0.17066018	0.12917521	-0.13402753	-0.03869988	0.09018132	0.14445653	-1.82785114	0.05266022	0.37804884	-0.02444512	-1.31994349	-0.61315992	1.10775378	0.36024081	-1.05454366	0.61787308	0.20127073	-3.39444683	-0.74075700	0.52282360	-2.09796136	0.78186127
6975	69.74000000	0.20494899	-0.41435682	-0.16816507	0.20290387	-0.20198796	-0.03588102	0.09919242	0.16127573	-1.89462836	0.06131365	0.33471308	0.03724834	-1.28265931	-0.76776078	1.34153976	0.23391217	-0.72990191	0.63642481	0.31324100	-3.73286840	-0.90372396	-0.18737605	-2.19134883	0.52911402
6976	69.75000000	0.18228236	-0.37509560	-0.15024618	0.29393112	-0.24016173	-0.03890790	0.14266731	0.17986712	-1.95162821	0.11548652	0.33078280	0.13132365	-1.23236360	-0.87258164	1.50419540	0.04705117	-0.32655360	0.52882922	0.46085808	-4.17543486	-1.07698906	-2.05306154	-1.72974311	0.61967861
6977	69.76000000	0.16739834	-0.35058849	-0.13898206	0.39501128	-0.21888538	-0.05034606	0.23686144	0.19294408	-1.97949440	0.24264870	0.35853715	0.25039028	-1.32315676	-0.72965110	1.58180409	-0.03201135	-0.07762641	0.30777549	0.60891785	-4.52128536	-1.23101492	-1.99191843	-1.20417931	0.76896673
6978	69.77000000	0.16143151	-0.30855709	-0.14893569	0.45570401	-0.22499483	-0.05812915	0.36194789	0.15514560	-1.98444331	0.45378283	0.36485443	0.40505037	-1.30279014	-0.51895221	1.51971644	-0.08033039	-0.08188179	0.03392735	0.71042183	-4.81468543	-1.37391090	-1.73803811	-0.57299980	0.86249549
6979	69.78000000	0.12643327	-0.28088852	-0.13879654	0.47519196	-0.24246289	-0.05318281	0.40654424	0.10033607	-1.99252343	0.66890685	0.35537360	0.57334162	-0.88659639	-0.73322000	1.36824746	-0.18395289	-0.28423826	-0.17973346	0.83477607	-4.98765379	-1.47497063	-0.89423703	-0.43959500	0.43137633
6980	69.79000000	0.11383723	-0.24543012	-0.13668003	0.45770724	-0.23095023	-0.03207735	0.43318591	0.02690240	-1.99904037	0.80839032	0.35379307	0.76499032	-0.29528668	-1.12819931	1.25910164	-0.31619248	-0.49638830	-0.26078164	0.43466247	-4.83567410	-1.44422550	-0.94665463	-0.34449419	0.34119764
6981	69.80000000	0.12815974	-0.21273182	-0.14041089	0.41691550	-0.21808243	-0.01067362	0.50532947	-0.08808281	-1.99978878	0.85260895	0.38997386	0.97808949	0.07045641	-0.93199066	1.22883026	-0.33958125	-0.56386091	-0.19339181	0.64585532	-4.94172751	-1.68854075	-0.46127640	-0.28453357	0.27995788
6982	69.81000000	0.13971549	-0.18158919	-0.13423745	0.36107957	-0.21672387	0.01412080	0.55782455	-0.19681630	-1.99260651	0.83353987	0.44766868	1.18483798	0.19910687	-0.68545555	1.17381850	-0.14831325	-0.50265805	-0.00985810	0.88941231	-4.99386851	-1.87871441	-0.37147571	-0.15724862	0.24241750
6983	69.82000000	0.15048534	-0.14568835	-0.12362588	0.29023410	-0.20741426	0.04217309	0.59878626	-0.31069647	-1.96774776	0.80047993	0.49900508	1.36672903	0.35138484	-0.69719941	1.06067117	0.19802221	-0.44117405	0.22590420	0.58615856	-4.90003314	-1.87677716	-0.23525591	-0.14315477	0.21770600
6984	69.83000000	0.18693165	-0.11615240	-0.12600864	0.22581485	-0.17575359	0.06400556	0.60274888	-0.41766085	-1.92346754	0.77232587	0.53268849	1.51011873	0.48857877	-0.69971613	0.95471006	0.62689918	-0.52485783	0.45272372	0.46087090	-4.67494617	-1.95673816	-0.18528746	-0.13622286	0.20252053
6985	69.84000000	0.24108744	-0.08008503	-0.13961866	0.17224138	-0.11922431	0.09064697	0.55167019	-0.45391655	-1.86927423	0.75936763	0.50630334	1.61290963	0.52810292	-0.60519899	0.87735910	0.97955797	-0.69615565	0.60440889	0.61206642	-4.39654441	-2.07472593	-0.11563606	-0.09692392	0.15658552
6986	69.85000000	0.30473841	-0.05298607	-0.16256816	0.15062351	-0.04139303	0.11533212	0.46168578	-0.44021580	-1.75793217	0.77385045	0.42862502	1.64869356	0.63048244	-0.58730742	0.85322293	1.16005090	-0.76051235	0.65160360	0.58713253	-4.47755829	-2.34410701	-0.01212432	-0.11094757	0.11318060
6987	69.86000000	0.34273924	-0.02085667	-0.18713165	0.14593532	0.00894149	0.13608034	0.31186649	-0.42321407	-1.56028675	0.79851100	0.34083122	1.61583373	0.63817376	-0.56534657	0.87313542	1.16507289	-0.63834708	0.69694187	0.44460031	-4.48328759	-2.51208633	-0.01424857	-0.09161137	0.10672181
6988	69.87000000	0.34091969	0.02894708	-0.20701411	0.16370887	0.04654822	0.14920387	0.12395841	-0.44653143	-1.32262949	0.77009527	0.26285901	1.55351709	0.56446824	-0.49816123	0.85514910	1.06730072	-0.42078910	0.77931129	1.45554531	-4.15749833	-2.73796567	-0.02014375	-0.05407058	0.10679661
